OpenSim_Sub10_CSBaseline_GRF.mot
version=1
nRows=41
nColumns=19
inDegrees=no
endheader
time	lFx	lFy	lFz	lCOPx	lCOPy	lCOPz	rFx	rFy	rFz	rCOPx	rCOPy	rCOPz	lMx	lMy	lMz	rMx	rMy	rMz
0	3.59937311	347.10468627	27.75020187	0.68406225	0	-0.63837683	1.07697122	311.07673321	-17.44865516	0.70931021	0	-0.34683447	0	-1.11220192	0	0	1.12120830	0
0.01000000	3.73611365	345.75132697	27.62594084	0.68372610	0	-0.63844394	0.37836720	310.91358259	-17.51320956	0.70914515	0	-0.34679424	0	-1.04494897	0	0	1.13353090	0
0.02000000	3.79119309	343.97379846	27.44931218	0.68372460	0	-0.63846960	0.03597951	310.80037540	-17.52160195	0.70909663	0	-0.34680760	0	-1.00915700	0	0	1.15390313	0
0.03000000	3.80283413	341.85660174	27.25672648	0.68399937	0	-0.63846225	-0.03130682	310.69944207	-17.47878071	0.70912175	0	-0.34683258	0	-1.01705690	0	0	1.16509810	0.00000000
0.04000000	3.78616115	339.51578426	27.08118171	0.68435298	0	-0.63847697	0.05155901	310.58511781	-17.40924238	0.70919824	0	-0.34684208	0	-1.05816092	0	0	1.15316997	0.00000000
0.05000000	3.74563994	337.02481898	26.92950773	0.68464640	0	-0.63849347	0.19051042	310.40442426	-17.35409329	0.70923654	0	-0.34687926	0	-1.11206193	0	0	1.14045562	0
0.06000000	3.68769139	334.44919772	26.76440137	0.68500999	0	-0.63849101	0.33100117	310.13250041	-17.34819389	0.70910370	0	-0.34694948	0	-1.15760828	0	0	1.14655169	0
0.07000000	3.63261999	331.93228074	26.56797308	0.68548719	0	-0.63849976	0.45322124	309.85259610	-17.38805949	0.70879662	0	-0.34702286	0	-1.19265262	0	0	1.16059298	0.00000000
0.08000000	3.60124854	329.65055007	26.38471424	0.68593744	0	-0.63849721	0.55082603	309.60145955	-17.43500579	0.70845352	0	-0.34710326	0	-1.21215264	0	0	1.17418526	0
0.09000000	3.56104734	327.71926259	26.25836169	0.68625028	0	-0.63849335	0.62818545	309.41107047	-17.46011554	0.70811787	0	-0.34722367	0	-1.21509906	0	0	1.17370115	0.00000000
0.10000000	3.44870790	326.07846194	26.19059294	0.68637742	0	-0.63850886	0.69934261	309.30890443	-17.44074160	0.70768026	0	-0.34736066	0	-1.20909369	0	0	1.16195942	0
0.11000000	3.27433815	324.46031021	26.14271606	0.68640785	0	-0.63852120	0.80142452	309.20510438	-17.38611408	0.70710680	0	-0.34754566	0	-1.20974258	0	0	1.15258366	0
0.12000000	3.07767606	322.64469076	26.08647933	0.68644330	0	-0.63851272	0.96794431	309.08481267	-17.31326611	0.70645769	0	-0.34778792	0	-1.21955806	0	0	1.14880110	0
0.13000000	2.90214700	320.77363898	26.02751282	0.68645428	0	-0.63850506	1.21629919	309.02643255	-17.23195295	0.70574595	0	-0.34801217	0	-1.23787515	0	0	1.15233129	0.00000000
0.14000000	2.80144468	319.22766634	25.99586169	0.68638345	0	-0.63852143	1.59157560	309.07864440	-17.16180258	0.70498398	0	-0.34818877	0	-1.25905155	0	0	1.17197432	0
0.15000000	2.79258431	318.31857408	26.01488119	0.68625284	0	-0.63854395	2.10541003	309.25219095	-17.11378220	0.70419885	0	-0.34833425	0	-1.28585194	0	0	1.19767909	0.00000000
0.16000000	2.84656405	318.16167218	26.09682305	0.68624335	0	-0.63860362	2.68513679	309.61601263	-17.08150286	0.70339392	0	-0.34845091	0	-1.31144195	0	0	1.20703452	0
0.17000000	2.91462162	318.69214122	26.23071227	0.68643895	0	-0.63872851	3.20466603	310.24778022	-17.05959723	0.70269758	0	-0.34852248	0	-1.31486062	0	0	1.20367420	0
0.18000000	2.95484429	319.68434973	26.38270432	0.68684294	0	-0.63886578	3.53698409	310.99363475	-17.06520325	0.70205498	0	-0.34855636	0	-1.29499550	0	0	1.19236461	0
0.19000000	2.93796442	320.86867166	26.52330766	0.68734741	0	-0.63898548	3.66696610	311.66242613	-17.08554314	0.70145234	0	-0.34861479	0	-1.25974459	0	0	1.17242856	0
0.20000000	2.90016841	322.03601466	26.66294614	0.68782384	0	-0.63908501	3.68563423	312.13739747	-17.13131807	0.70090803	0	-0.34873294	0	-1.23254443	0	0	1.14642014	0
0.21000000	2.85660745	323.13078147	26.81788682	0.68819359	0	-0.63916479	3.66427515	312.53546222	-17.20907117	0.70044401	0	-0.34888736	0	-1.21556032	0	0	1.12034841	0
0.22000000	2.79966739	324.21519446	27.01613825	0.68841643	0	-0.63923318	3.65911337	313.08589703	-17.28064741	0.70021727	0	-0.34899771	0	-1.20777141	0	0	1.09226143	0
0.23000000	2.72557690	325.29930156	27.24878882	0.68871375	0	-0.63931687	3.69215421	313.82798585	-17.33978194	0.70019464	0	-0.34904590	0	-1.21647694	0	0	1.06034872	0
0.24000000	2.62809335	326.34350892	27.51189517	0.68912377	0	-0.63941764	3.74241381	314.80970453	-17.39795845	0.70021904	0	-0.34905634	0	-1.24315086	0	0	1.02334578	0
0.25000000	2.51122790	327.29163408	27.79715488	0.68951815	0	-0.63949806	3.76290566	316.01231691	-17.45700736	0.70006687	0	-0.34903330	0	-1.28395424	0	0	0.97900553	0
0.26000000	2.40912852	328.07904684	28.06580809	0.68980434	0	-0.63954615	3.73761949	317.30313528	-17.52038852	0.69981526	0	-0.34905474	0	-1.33141690	0	0	0.95174016	0.00000000
0.27000000	2.29547496	328.62740473	28.27763607	0.69001398	0	-0.63957417	3.69594511	318.57640260	-17.57509425	0.69958839	0	-0.34919635	0	-1.36619547	0	0	0.95002829	0.00000000
0.28000000	2.14913426	328.83644942	28.42255386	0.69020120	0	-0.63962731	3.69554802	319.88966971	-17.58003766	0.69947716	0	-0.34938078	0	-1.39852357	0	0	0.94070660	0
0.29000000	1.99708699	328.50720797	28.50570090	0.69039946	0	-0.63966620	3.74368670	321.42447429	-17.51013304	0.69953523	0	-0.34950992	0	-1.43305793	0	0	0.90351085	0
0.30000000	1.83932270	327.37506028	28.52075213	0.69070429	0	-0.63965233	3.83383627	323.34050706	-17.42813595	0.69973736	0	-0.34957076	0	-1.47566795	0	0	0.81766140	-0.00000000
0.31000000	1.66742396	325.30913148	28.46184709	0.69122370	0	-0.63960718	3.95137700	325.71219651	-17.41837301	0.69987433	0	-0.34957598	0	-1.54104148	0	0	0.70822112	0
0.32000000	1.51052604	322.48631918	28.33723213	0.69185507	0	-0.63956262	4.05961754	328.32287065	-17.52007218	0.69968270	0	-0.34959314	0	-1.60652271	0	0	0.62862640	0
0.33000000	1.37873774	319.14512691	28.15241506	0.69238637	0	-0.63951986	4.14013442	330.92578723	-17.71170540	0.69929723	0	-0.34964848	0	-1.63782658	0	0	0.57766029	0
0.34000000	1.26155807	315.36073982	27.90803065	0.69288689	0	-0.63947637	4.20005249	333.41713481	-17.91416178	0.69891348	0	-0.34967696	0	-1.64129104	0	0	0.53637925	0
0.35000000	1.17321753	311.21063901	27.58998193	0.69334242	0	-0.63944631	4.27868748	335.75750159	-18.07335705	0.69863346	0	-0.34967500	0	-1.63961424	0	0	0.49792503	0
0.36000000	1.11540715	306.89176628	27.20279832	0.69372675	0	-0.63939859	4.40547839	337.92045949	-18.19270455	0.69844094	0	-0.34968528	0	-1.63399975	0	0	0.46557876	-0.00000000
0.37000000	1.09086180	302.67624114	26.75896993	0.69412015	0	-0.63938069	4.56737954	339.95315868	-18.26207882	0.69838006	0	-0.34971740	0	-1.62429042	0	0	0.43621607	0.00000000
0.38000000	1.10535429	298.77848780	26.28828348	0.69451264	0	-0.63938526	4.76731275	341.98837047	-18.30034199	0.69856131	0	-0.34974163	0	-1.61608538	0	0	0.40245412	0
0.39000000	1.17327157	295.28678529	25.80528497	0.69479708	0	-0.63941404	4.97503719	344.07920308	-18.34588179	0.69896742	0	-0.34975189	0	-1.61530123	0	0	0.35761645	0
0.40000000	1.29008046	292.13819045	25.32367174	0.69486826	0	-0.63946730	5.12333941	346.17911051	-18.41451197	0.69931122	0	-0.34973850	0	-1.63117816	0	0	0.30743328	0.00000000
